<svg width="211" height="202" viewBox="0 0 211 202" fill="none" xmlns="http://www.w3.org/2000/svg">
<rect x="7.76216" y="60.2211" width="176.455" height="141.124" rx="32" transform="rotate(-17.5544 7.76216 60.2211)" fill="#CF2C76" fill-opacity="0.5"/>
<rect x="26" y="26" width="176" height="150" rx="36" fill="#CF2C76"/>
<path d="M75.128 104.96H71.784V110H70.584V99.44H76.296V100.56H71.784V103.84H75.128V104.96ZM81.8106 110L81.6826 108.688H81.6186C81.4906 108.891 81.32 109.083 81.1066 109.264C80.8933 109.445 80.6533 109.605 80.3866 109.744C80.1306 109.883 79.848 109.989 79.5386 110.064C79.24 110.149 78.9413 110.192 78.6426 110.192C77.9386 110.192 77.4106 109.989 77.0586 109.584C76.7066 109.168 76.5306 108.651 76.5306 108.032C76.5306 107.424 76.6853 106.939 76.9946 106.576C77.304 106.213 77.6826 105.941 78.1306 105.76C78.5786 105.579 79.048 105.461 79.5386 105.408C80.04 105.355 80.4773 105.328 80.8506 105.328H81.5706V105.136C81.5706 104.731 81.512 104.421 81.3946 104.208C81.288 103.995 81.128 103.813 80.9146 103.664C80.7333 103.547 80.536 103.467 80.3226 103.424C80.12 103.371 79.848 103.344 79.5066 103.344C79.0586 103.344 78.664 103.403 78.3226 103.52C77.9813 103.637 77.6506 103.792 77.3306 103.984L77.0746 103.024C77.7893 102.608 78.6426 102.4 79.6346 102.4C80.0293 102.4 80.4026 102.437 80.7546 102.512C81.1066 102.576 81.416 102.693 81.6826 102.864C81.992 103.056 82.2373 103.328 82.4186 103.68C82.6 104.032 82.6906 104.469 82.6906 104.992V110H81.8106ZM78.9786 109.248C79.416 109.248 79.88 109.109 80.3706 108.832C80.8613 108.555 81.2613 108.155 81.5706 107.632V106.144H81.4266C80.9893 106.144 80.552 106.16 80.1146 106.192C79.6773 106.224 79.2773 106.304 78.9146 106.432C78.5626 106.56 78.2746 106.747 78.0506 106.992C77.8266 107.227 77.7146 107.552 77.7146 107.968C77.7146 108.384 77.8266 108.704 78.0506 108.928C78.2853 109.141 78.5946 109.248 78.9786 109.248ZM87.2674 103.296C86.7554 103.296 86.382 103.392 86.1474 103.584C85.9234 103.765 85.8114 104.016 85.8114 104.336C85.8114 104.443 85.8274 104.555 85.8594 104.672C85.8914 104.789 85.95 104.901 86.0354 105.008C86.1314 105.104 86.254 105.2 86.4034 105.296C86.5634 105.381 86.7714 105.451 87.0274 105.504L88.1634 105.76C88.6114 105.856 88.9687 105.989 89.2354 106.16C89.5127 106.32 89.726 106.496 89.8754 106.688C90.0247 106.88 90.1207 107.077 90.1634 107.28C90.2167 107.472 90.2434 107.653 90.2434 107.824C90.2434 108.155 90.174 108.464 90.0354 108.752C89.9074 109.04 89.7154 109.291 89.4594 109.504C89.214 109.717 88.91 109.883 88.5474 110C88.1847 110.128 87.7794 110.192 87.3314 110.192C86.766 110.192 86.2434 110.112 85.7634 109.952C85.2834 109.781 84.8994 109.595 84.6114 109.392L84.8994 108.352C85.2834 108.704 85.71 108.96 86.1794 109.12C86.6487 109.28 87.07 109.36 87.4434 109.36C87.9767 109.36 88.382 109.232 88.6594 108.976C88.9367 108.709 89.0754 108.432 89.0754 108.144C89.0754 108.048 89.07 107.941 89.0594 107.824C89.0487 107.696 89.006 107.568 88.9314 107.44C88.8567 107.312 88.7447 107.195 88.5954 107.088C88.446 106.971 88.2327 106.88 87.9554 106.816L86.4194 106.432C86.0674 106.347 85.7794 106.235 85.5554 106.096C85.3314 105.957 85.1554 105.808 85.0274 105.648C84.8994 105.477 84.8087 105.301 84.7554 105.12C84.702 104.928 84.6754 104.736 84.6754 104.544C84.6754 103.893 84.9154 103.376 85.3954 102.992C85.886 102.597 86.5367 102.4 87.3474 102.4C87.7634 102.4 88.2114 102.459 88.6914 102.576C89.1714 102.683 89.5767 102.843 89.9074 103.056L89.6034 104.016C89.39 103.835 89.07 103.669 88.6434 103.52C88.2274 103.371 87.7687 103.296 87.2674 103.296ZM92.5059 103.392H91.2739V102.8L92.5379 102.64L92.7779 100.416H93.6259V102.64H95.3539V103.392H93.6259V108.496C93.6259 108.837 93.6739 109.061 93.7699 109.168C93.8765 109.275 94.0365 109.328 94.2499 109.328C94.4952 109.328 94.7139 109.291 94.9059 109.216C95.0979 109.141 95.2685 109.051 95.4179 108.944L95.6419 109.792C95.4605 109.877 95.2205 109.963 94.9219 110.048C94.6339 110.133 94.3139 110.176 93.9619 110.176C93.6205 110.176 93.3539 110.128 93.1619 110.032C92.9699 109.936 92.8259 109.808 92.7299 109.648C92.6339 109.488 92.5699 109.312 92.5379 109.12C92.5165 108.917 92.5059 108.72 92.5059 108.528V103.392ZM101.443 99.44H101.523C102.035 99.4187 102.59 99.4027 103.187 99.392C103.785 99.3707 104.366 99.36 104.931 99.36C105.689 99.36 106.377 99.4667 106.995 99.68C107.625 99.8933 108.158 100.187 108.595 100.56C109.161 101.072 109.571 101.696 109.827 102.432C110.083 103.168 110.211 103.968 110.211 104.832C110.211 105.557 110.11 106.245 109.907 106.896C109.705 107.536 109.39 108.101 108.963 108.592C108.547 109.083 108.019 109.472 107.379 109.76C106.739 110.048 105.982 110.192 105.107 110.192C104.35 110.192 103.667 110.171 103.059 110.128C102.462 110.096 101.923 110.053 101.443 110V99.44ZM105.027 100.416C104.601 100.416 104.179 100.421 103.763 100.432C103.358 100.432 102.985 100.443 102.643 100.464V109.04C103.315 109.104 104.121 109.136 105.059 109.136C106.329 109.136 107.283 108.763 107.923 108.016C108.563 107.269 108.883 106.165 108.883 104.704C108.883 104.064 108.814 103.483 108.675 102.96C108.547 102.427 108.329 101.973 108.019 101.6C107.721 101.227 107.326 100.939 106.835 100.736C106.345 100.523 105.742 100.416 105.027 100.416ZM115.669 102.4C116.608 102.4 117.333 102.64 117.845 103.12C118.357 103.589 118.613 104.256 118.613 105.12C118.613 105.301 118.602 105.488 118.581 105.68C118.56 105.861 118.522 105.995 118.469 106.08H113.077V106.24C113.077 106.645 113.13 107.035 113.237 107.408C113.344 107.781 113.504 108.112 113.717 108.4C113.93 108.688 114.197 108.917 114.517 109.088C114.848 109.259 115.237 109.344 115.685 109.344C115.941 109.344 116.192 109.317 116.437 109.264C116.682 109.2 116.917 109.125 117.141 109.04C117.365 108.944 117.573 108.843 117.765 108.736C117.957 108.629 118.128 108.523 118.277 108.416L118.469 109.328C118.33 109.413 118.16 109.509 117.957 109.616C117.754 109.712 117.53 109.803 117.285 109.888C117.04 109.973 116.768 110.043 116.469 110.096C116.181 110.16 115.877 110.192 115.557 110.192C114.96 110.192 114.432 110.091 113.973 109.888C113.514 109.675 113.13 109.392 112.821 109.04C112.512 108.677 112.277 108.261 112.117 107.792C111.957 107.323 111.877 106.832 111.877 106.32C111.877 105.797 111.957 105.301 112.117 104.832C112.288 104.352 112.533 103.931 112.853 103.568C113.173 103.205 113.568 102.923 114.037 102.72C114.517 102.507 115.061 102.4 115.669 102.4ZM115.621 103.296C114.917 103.296 114.368 103.483 113.973 103.856C113.589 104.219 113.328 104.677 113.189 105.232H117.557C117.568 105.179 117.573 105.131 117.573 105.088C117.573 105.045 117.573 104.997 117.573 104.944C117.573 104.677 117.52 104.443 117.413 104.24C117.306 104.027 117.162 103.851 116.981 103.712C116.8 103.573 116.592 103.472 116.357 103.408C116.122 103.333 115.877 103.296 115.621 103.296ZM121.855 110H120.735V98.16H121.855V110ZM125.571 110H124.451V102.64H125.571V110ZM124.211 99.952C124.211 99.7387 124.286 99.5467 124.435 99.376C124.595 99.2053 124.787 99.12 125.011 99.12C125.224 99.12 125.416 99.2053 125.587 99.376C125.758 99.5467 125.843 99.7387 125.843 99.952C125.843 100.176 125.758 100.368 125.587 100.528C125.416 100.677 125.224 100.752 125.011 100.752C124.787 100.752 124.595 100.677 124.435 100.528C124.286 100.368 124.211 100.176 124.211 99.952ZM131.693 110H130.269L126.925 102.64H128.141L131.005 108.944L133.869 102.64H135.036L131.693 110ZM139.622 102.4C140.561 102.4 141.286 102.64 141.798 103.12C142.31 103.589 142.566 104.256 142.566 105.12C142.566 105.301 142.555 105.488 142.534 105.68C142.513 105.861 142.475 105.995 142.422 106.08H137.03V106.24C137.03 106.645 137.083 107.035 137.19 107.408C137.297 107.781 137.457 108.112 137.67 108.4C137.883 108.688 138.15 108.917 138.47 109.088C138.801 109.259 139.19 109.344 139.638 109.344C139.894 109.344 140.145 109.317 140.39 109.264C140.635 109.2 140.87 109.125 141.094 109.04C141.318 108.944 141.526 108.843 141.718 108.736C141.91 108.629 142.081 108.523 142.23 108.416L142.422 109.328C142.283 109.413 142.113 109.509 141.91 109.616C141.707 109.712 141.483 109.803 141.238 109.888C140.993 109.973 140.721 110.043 140.422 110.096C140.134 110.16 139.83 110.192 139.51 110.192C138.913 110.192 138.385 110.091 137.926 109.888C137.467 109.675 137.083 109.392 136.774 109.04C136.465 108.677 136.23 108.261 136.07 107.792C135.91 107.323 135.83 106.832 135.83 106.32C135.83 105.797 135.91 105.301 136.07 104.832C136.241 104.352 136.486 103.931 136.806 103.568C137.126 103.205 137.521 102.923 137.99 102.72C138.47 102.507 139.014 102.4 139.622 102.4ZM139.574 103.296C138.87 103.296 138.321 103.483 137.926 103.856C137.542 104.219 137.281 104.677 137.142 105.232H141.51C141.521 105.179 141.526 105.131 141.526 105.088C141.526 105.045 141.526 104.997 141.526 104.944C141.526 104.677 141.473 104.443 141.366 104.24C141.259 104.027 141.115 103.851 140.934 103.712C140.753 103.573 140.545 103.472 140.31 103.408C140.075 103.333 139.83 103.296 139.574 103.296ZM148.56 103.824C148.389 103.728 148.218 103.653 148.048 103.6C147.877 103.536 147.712 103.504 147.552 103.504C147.338 103.504 147.136 103.563 146.944 103.68C146.752 103.797 146.576 103.957 146.416 104.16C146.256 104.363 146.112 104.597 145.984 104.864C145.866 105.131 145.776 105.408 145.712 105.696V110H144.592V102.64H145.472L145.6 104.256H145.664C145.738 104.011 145.834 103.776 145.952 103.552C146.08 103.328 146.229 103.131 146.4 102.96C146.581 102.789 146.784 102.656 147.008 102.56C147.232 102.453 147.488 102.4 147.776 102.4C147.978 102.4 148.192 102.437 148.416 102.512C148.64 102.576 148.8 102.661 148.896 102.768L148.56 103.824ZM153.799 110.064C153.639 110.405 153.447 110.805 153.223 111.264C152.999 111.733 152.732 112.176 152.423 112.592C152.113 113.008 151.751 113.36 151.335 113.648C150.919 113.947 150.449 114.096 149.927 114.096C149.841 114.096 149.777 114.091 149.735 114.08C149.692 114.08 149.644 114.069 149.59 114.048L149.383 112.992C149.415 113.003 149.452 113.013 149.495 113.024C149.537 113.035 149.612 113.04 149.719 113.04C149.932 113.04 150.129 113.019 150.311 112.976C150.503 112.933 150.689 112.848 150.871 112.72C151.244 112.453 151.58 112.064 151.879 111.552C152.188 111.04 152.465 110.443 152.711 109.76L149.03 102.64H150.359L153.286 108.768L155.911 102.64H157.175L153.799 110.064Z" fill="white"/>
<path d="M97.202 129.96H99.938V131.436H97.202V134.262H95.546V131.436H92.828V129.96H95.546V127.314H97.202V129.96ZM105.181 135H103.111V126.252L101.653 126.9L101.257 125.1L105.181 123.12V135ZM112.49 123.03C113.258 123.03 113.936 123.198 114.524 123.534C115.124 123.858 115.628 124.296 116.036 124.848C116.444 125.4 116.75 126.042 116.954 126.774C117.17 127.494 117.278 128.256 117.278 129.06C117.278 129.864 117.17 130.638 116.954 131.382C116.738 132.114 116.42 132.768 116 133.344C115.592 133.908 115.082 134.364 114.47 134.712C113.858 135.048 113.156 135.216 112.364 135.216C111.584 135.216 110.9 135.054 110.312 134.73C109.736 134.406 109.256 133.968 108.872 133.416C108.488 132.864 108.194 132.228 107.99 131.508C107.798 130.776 107.702 130.008 107.702 129.204C107.702 128.352 107.81 127.554 108.026 126.81C108.242 126.054 108.554 125.4 108.962 124.848C109.37 124.284 109.868 123.84 110.456 123.516C111.056 123.192 111.734 123.03 112.49 123.03ZM112.436 133.488C112.892 133.488 113.282 133.38 113.606 133.164C113.942 132.936 114.218 132.624 114.434 132.228C114.65 131.832 114.812 131.364 114.92 130.824C115.028 130.284 115.082 129.702 115.082 129.078C115.082 128.442 115.028 127.86 114.92 127.332C114.812 126.804 114.644 126.348 114.416 125.964C114.2 125.58 113.924 125.286 113.588 125.082C113.252 124.866 112.862 124.758 112.418 124.758C111.974 124.758 111.59 124.866 111.266 125.082C110.954 125.286 110.696 125.58 110.492 125.964C110.3 126.336 110.156 126.792 110.06 127.332C109.964 127.86 109.916 128.442 109.916 129.078C109.916 130.53 110.132 131.628 110.564 132.372C111.008 133.116 111.632 133.488 112.436 133.488ZM122.349 135.432H120.729L129.063 122.562H130.683L122.349 135.432ZM121.665 123.03C122.109 123.03 122.505 123.12 122.853 123.3C123.201 123.48 123.495 123.72 123.735 124.02C123.987 124.32 124.173 124.674 124.293 125.082C124.425 125.478 124.491 125.898 124.491 126.342C124.491 126.774 124.425 127.194 124.293 127.602C124.173 128.01 123.987 128.37 123.735 128.682C123.495 128.994 123.195 129.246 122.835 129.438C122.475 129.618 122.061 129.708 121.593 129.708C121.137 129.708 120.735 129.624 120.387 129.456C120.051 129.276 119.763 129.036 119.523 128.736C119.295 128.436 119.121 128.088 119.001 127.692C118.893 127.284 118.839 126.858 118.839 126.414C118.839 125.946 118.899 125.508 119.019 125.1C119.151 124.68 119.337 124.32 119.577 124.02C119.829 123.708 120.129 123.468 120.477 123.3C120.825 123.12 121.221 123.03 121.665 123.03ZM121.611 128.538C121.851 128.538 122.055 128.484 122.223 128.376C122.391 128.256 122.529 128.1 122.637 127.908C122.745 127.704 122.823 127.476 122.871 127.224C122.931 126.96 122.961 126.678 122.961 126.378C122.961 125.73 122.853 125.208 122.637 124.812C122.421 124.404 122.085 124.2 121.629 124.2C121.173 124.2 120.849 124.398 120.657 124.794C120.477 125.19 120.387 125.694 120.387 126.306C120.387 127.05 120.495 127.608 120.711 127.98C120.927 128.352 121.227 128.538 121.611 128.538ZM129.819 128.412C130.263 128.412 130.659 128.502 131.007 128.682C131.355 128.862 131.649 129.102 131.889 129.402C132.141 129.702 132.327 130.056 132.447 130.464C132.579 130.86 132.645 131.28 132.645 131.724C132.645 132.156 132.579 132.576 132.447 132.984C132.327 133.392 132.141 133.752 131.889 134.064C131.649 134.376 131.349 134.628 130.989 134.82C130.629 135 130.215 135.09 129.747 135.09C129.291 135.09 128.889 135.006 128.541 134.838C128.205 134.658 127.917 134.418 127.677 134.118C127.449 133.818 127.275 133.47 127.155 133.074C127.047 132.666 126.993 132.24 126.993 131.796C126.993 131.328 127.053 130.89 127.173 130.482C127.305 130.062 127.491 129.702 127.731 129.402C127.983 129.09 128.283 128.85 128.631 128.682C128.979 128.502 129.375 128.412 129.819 128.412ZM129.765 133.92C130.005 133.92 130.209 133.866 130.377 133.758C130.545 133.638 130.683 133.482 130.791 133.29C130.899 133.086 130.977 132.858 131.025 132.606C131.085 132.342 131.115 132.06 131.115 131.76C131.115 131.112 131.007 130.59 130.791 130.194C130.575 129.786 130.239 129.582 129.783 129.582C129.327 129.582 129.003 129.78 128.811 130.176C128.631 130.572 128.541 131.076 128.541 131.688C128.541 132.432 128.649 132.99 128.865 133.362C129.081 133.734 129.381 133.92 129.765 133.92Z" fill="white"/>
<path d="M123 71C123 74.1826 121.736 77.2348 119.485 79.4853C117.235 81.7357 114.183 83 111 83C107.817 83 104.765 81.7357 102.515 79.4853C100.264 77.2348 99 74.1826 99 71C99 67.8174 100.264 64.7652 102.515 62.5147C104.765 60.2643 107.817 59 111 59C114.183 59 117.235 60.2643 119.485 62.5147C121.736 64.7652 123 67.8174 123 71ZM111 64.25C111 64.0511 110.921 63.8603 110.78 63.7197C110.64 63.579 110.449 63.5 110.25 63.5C110.051 63.5 109.86 63.579 109.72 63.7197C109.579 63.8603 109.5 64.0511 109.5 64.25V72.5C109.5 72.6322 109.535 72.762 109.601 72.8764C109.668 72.9907 109.763 73.0854 109.878 73.151L115.128 76.151C115.3 76.2441 115.502 76.2661 115.69 76.2124C115.879 76.1586 116.039 76.0333 116.136 75.8633C116.233 75.6933 116.26 75.492 116.21 75.3024C116.161 75.1129 116.04 74.9502 115.872 74.849L111 72.065V64.25Z" fill="#F8F8F8"/>
</svg>
